<?xml version="1.0" encoding="utf-8"?>
<!-- Svg Vector Icons : http://www.onlinewebfonts.com/icon -->
<!DOCTYPE svg PUBLIC "-//W3C//DTD SVG 1.1//EN" "http://www.w3.org/Graphics/SVG/1.1/DTD/svg11.dtd">
<svg version="1.1" xmlns="http://www.w3.org/2000/svg" xmlns:xlink="http://www.w3.org/1999/xlink" x="0px" y="0px"
     viewBox="0 0 1000 1000" enable-background="new 0 0 1000 1000" xml:space="preserve">
<metadata> Svg Vector Icons : http://www.onlinewebfonts.com/icon </metadata>
  <g fill="#3858AC"><path d="M592.3,749.8H40.7c-16.8,0-30.7,10.3-30.7,22.9v137.6c0,12.6,13.8,22.9,30.7,22.9h551.7c16.9,0,30.7-10.3,30.7-22.9V772.7C623,760.1,609.2,749.8,592.3,749.8z M316.5,772.7v137.6H71.3V772.7H316.5z M714.9,520.5H40.6c-16.8,0-30.6,10.3-30.6,22.9V681c0,12.6,13.8,22.9,30.6,22.9h674.3c16.9,0,30.6-10.3,30.6-22.9V543.4C745.6,530.8,731.8,520.5,714.9,520.5z M377.8,543.4V681H71.3V543.4H377.8z M837.5,66.8H40.6C23.8,66.8,10,77.1,10,89.8v137.6c0,12.6,13.8,22.9,30.6,22.9h796.9c16.9,0,30.6-10.3,30.6-22.9V89.8C868.2,77.1,854.4,66.8,837.5,66.8L837.5,66.8z M71.3,89.8h367.8v137.6H71.3L71.3,89.8L71.3,89.8z M955,299.8H45c-19.2,0-35,10.3-35,22.9v137.6c0,12.6,15.8,22.9,35,22.9h910c19.3,0,35-10.3,35-22.9V322.7C990,310.1,974.3,299.8,955,299.8L955,299.8z M80,322.7h420l0,137.6H80V322.7z"/></g>
</svg>
